<svg width="1920" height="407" viewBox="0 0 1920 407" fill="none" xmlns="http://www.w3.org/2000/svg">
<g clip-path="url(#clip0_1_3)">
<path d="M183.271 179.003V130.579C183.271 125.056 178.794 120.579 173.271 120.579H148.785C143.262 120.579 138.785 125.056 138.785 130.579V179.003" stroke="#455B88" stroke-width="25" stroke-linecap="round"/>
<path d="M185.495 84.2721L106.968 84.2721C101.445 84.2721 96.9681 88.7492 96.9681 94.2721L96.9681 174.011C96.9681 179.534 92.491 184.011 86.9681 184.011L22 184.011C16.4772 184.011 12 179.534 12 174.011V161.893" stroke="#E7E3E0" stroke-width="25" stroke-linecap="round"/>
<path d="M12.4448 126.838L12.4448 83.8548" stroke="black" stroke-width="25" stroke-linecap="round"/>
<path d="M54.2616 149.791V57.1308C54.2616 51.608 58.7388 47.1308 64.2616 47.1308L174.161 47.1308C179.683 47.1308 184.161 42.6537 184.161 37.1308L184.161 20.8242C184.161 15.3013 179.683 10.8242 174.161 10.8242L22 10.8242C16.4771 10.8242 12 15.3013 12 20.8242L12 47.1308" stroke="#FF7930" stroke-width="25" stroke-linecap="round"/>
<path d="M613.105 179.436V131.012C613.105 125.489 608.628 121.012 603.105 121.012H578.619C573.096 121.012 568.619 125.489 568.619 131.012V179.436" stroke="#455B88" stroke-width="25" stroke-linecap="round"/>
<path d="M615.329 84.705L536.802 84.705C531.279 84.705 526.802 89.1822 526.802 94.705V174.444C526.802 179.967 522.325 184.444 516.802 184.444L451.834 184.444C446.311 184.444 441.834 179.967 441.834 174.444V162.326" stroke="#E7E3E0" stroke-width="25" stroke-linecap="round"/>
<path d="M442.279 127.271V84.2877" stroke="black" stroke-width="25" stroke-linecap="round"/>
<path d="M484.096 150.224V57.5638C484.096 52.0409 488.573 47.5638 494.096 47.5638L603.995 47.5638C609.517 47.5638 613.995 43.0866 613.995 37.5638V21.2571C613.995 15.7343 609.517 11.2571 603.995 11.2571L451.834 11.2571C446.311 11.2571 441.834 15.7343 441.834 21.2571V47.5638" stroke="#FF7930" stroke-width="25" stroke-linecap="round"/>
<path d="M398.838 388.126V339.702C398.838 334.179 394.361 329.702 388.838 329.702H364.352C358.83 329.702 354.352 334.179 354.352 339.702V388.126" stroke="#455B88" stroke-width="25" stroke-linecap="round"/>
<path d="M401.063 293.395H322.536C317.013 293.395 312.536 297.872 312.536 303.395V383.134C312.536 388.657 308.059 393.134 302.536 393.134H237.568C232.045 393.134 227.568 388.657 227.568 383.134V371.016" stroke="#E7E3E0" stroke-width="25" stroke-linecap="round"/>
<path d="M228.012 335.962V292.978" stroke="black" stroke-width="25" stroke-linecap="round"/>
<path d="M269.829 358.914V266.254C269.829 260.731 274.306 256.254 279.829 256.254H389.728C395.251 256.254 399.728 251.777 399.728 246.254V229.947C399.728 224.424 395.251 219.947 389.728 219.947L237.568 219.947C232.045 219.947 227.568 224.424 227.568 229.947L227.568 256.254" stroke="#FF7930" stroke-width="25" stroke-linecap="round"/>
<path d="M180.912 223.034H132.384C126.861 223.034 122.384 227.511 122.384 233.034V257.44C122.384 262.963 126.861 267.44 132.384 267.44H180.912" stroke="#455B88" stroke-width="25" stroke-linecap="round"/>
<path d="M86.0124 220.813L86.0124 299.183C86.0124 304.706 90.4895 309.183 96.0124 309.183H175.929C181.452 309.183 185.929 313.66 185.929 319.183V384C185.929 389.523 181.452 394 175.929 394H163.772" stroke="#E7E3E0" stroke-width="25" stroke-linecap="round"/>
<path d="M128.655 393.556H85.5943" stroke="black" stroke-width="25" stroke-linecap="round"/>
<path d="M151.648 351.813H58.805C53.2822 351.813 48.805 347.336 48.805 341.813L48.805 232.145C48.805 226.623 44.3278 222.145 38.805 222.145H22.4337C16.9109 222.145 12.4337 226.623 12.4337 232.145L12.4337 384C12.4337 389.523 16.9109 394 22.4337 394H48.805" stroke="#FF7930" stroke-width="25" stroke-linecap="round"/>
<path d="M395.179 12.6116L346.65 12.6116C341.127 12.6116 336.65 17.0887 336.65 22.6116V47.0184C336.65 52.5413 341.127 57.0184 346.65 57.0184L395.179 57.0184" stroke="#455B88" stroke-width="25" stroke-linecap="round"/>
<path d="M300.279 10.3912V88.7609C300.279 94.2837 304.756 98.7609 310.279 98.7609L390.195 98.7609C395.718 98.7609 400.195 103.238 400.195 108.761L400.195 173.578C400.195 179.101 395.718 183.578 390.195 183.578H378.038" stroke="#E7E3E0" stroke-width="25" stroke-linecap="round"/>
<path d="M342.921 183.134H299.861" stroke="black" stroke-width="25" stroke-linecap="round"/>
<path d="M365.914 141.391L273.071 141.391C267.549 141.391 263.071 136.914 263.071 131.391V21.7234C263.071 16.2006 258.594 11.7234 253.071 11.7234L236.7 11.7234C231.177 11.7234 226.7 16.2006 226.7 21.7234L226.7 173.578C226.7 179.101 231.177 183.578 236.7 183.578H263.071" stroke="#FF7930" stroke-width="25" stroke-linecap="round"/>
<path d="M611.18 222.168H562.651C557.129 222.168 552.651 226.645 552.651 232.168V256.574C552.651 262.097 557.129 266.574 562.651 266.574H611.18" stroke="#455B88" stroke-width="25" stroke-linecap="round"/>
<path d="M516.28 219.947V298.317C516.28 303.84 520.757 308.317 526.28 308.317H606.197C611.719 308.317 616.197 312.794 616.197 318.317V383.134C616.197 388.657 611.719 393.134 606.197 393.134H594.039" stroke="#E7E3E0" stroke-width="25" stroke-linecap="round"/>
<path d="M558.922 392.69H515.862" stroke="black" stroke-width="25" stroke-linecap="round"/>
<path d="M581.916 350.948H489.073C483.55 350.948 479.073 346.47 479.073 340.948V231.279C479.073 225.757 474.596 221.279 469.073 221.279H452.702C447.179 221.279 442.702 225.757 442.702 231.279V383.134C442.702 388.657 447.179 393.134 452.702 393.134H479.073" stroke="#FF7930" stroke-width="25" stroke-linecap="round"/>
<path d="M1043.37 174.241V125.816C1043.37 120.293 1038.9 115.816 1033.37 115.816H1008.89C1003.36 115.816 998.887 120.293 998.887 125.816V174.241" stroke="#455B88" stroke-width="25" stroke-linecap="round"/>
<path d="M1045.6 79.5094L967.07 79.5094C961.547 79.5094 957.07 83.9866 957.07 89.5094V169.248C957.07 174.771 952.593 179.248 947.07 179.248L882.102 179.248C876.579 179.248 872.102 174.771 872.102 169.248V157.131" stroke="#E7E3E0" stroke-width="25" stroke-linecap="round"/>
<path d="M872.547 122.076V79.0921" stroke="black" stroke-width="25" stroke-linecap="round"/>
<path d="M914.363 145.028V52.3682C914.363 46.8453 918.841 42.3682 924.363 42.3682L1034.26 42.3682C1039.79 42.3682 1044.26 37.891 1044.26 32.3682V16.0615C1044.26 10.5387 1039.79 6.06153 1034.26 6.06153L882.102 6.06153C876.579 6.06153 872.102 10.5387 872.102 16.0615V42.3682" stroke="#FF7930" stroke-width="25" stroke-linecap="round"/>
<path d="M829.106 382.931V334.506C829.106 328.983 824.629 324.506 819.106 324.506H794.62C789.097 324.506 784.62 328.983 784.62 334.506V382.931" stroke="#455B88" stroke-width="25" stroke-linecap="round"/>
<path d="M831.331 288.2H752.804C747.281 288.2 742.804 292.677 742.804 298.2V377.938C742.804 383.461 738.326 387.938 732.804 387.938H667.835C662.313 387.938 657.835 383.461 657.835 377.938V365.821" stroke="#E7E3E0" stroke-width="25" stroke-linecap="round"/>
<path d="M658.28 330.766V287.782" stroke="black" stroke-width="25" stroke-linecap="round"/>
<path d="M700.097 353.718V261.058C700.097 255.535 704.574 251.058 710.097 251.058H819.996C825.519 251.058 829.996 246.581 829.996 241.058V224.752C829.996 219.229 825.519 214.752 819.996 214.752L667.835 214.752C662.313 214.752 657.835 219.229 657.835 224.752V251.058" stroke="#FF7930" stroke-width="25" stroke-linecap="round"/>
<path d="M825.446 7.41595L776.918 7.41595C771.395 7.41595 766.918 11.8931 766.918 17.4159V41.8228C766.918 47.3457 771.395 51.8228 776.918 51.8228L825.446 51.8228" stroke="#455B88" stroke-width="25" stroke-linecap="round"/>
<path d="M730.547 5.1956V83.5653C730.547 89.0881 735.024 93.5653 740.547 93.5653L820.463 93.5653C825.986 93.5653 830.463 98.0424 830.463 103.565V168.382C830.463 173.905 825.986 178.382 820.463 178.382H808.306" stroke="#E7E3E0" stroke-width="25" stroke-linecap="round"/>
<path d="M773.189 177.938H730.128" stroke="black" stroke-width="25" stroke-linecap="round"/>
<path d="M796.182 136.196L703.339 136.196C697.816 136.196 693.339 131.719 693.339 126.196V16.5278C693.339 11.005 688.862 6.52782 683.339 6.52782L666.968 6.52782C661.445 6.52782 656.968 11.005 656.968 16.5278V168.382C656.968 173.905 661.445 178.382 666.968 178.382H693.339" stroke="#FF7930" stroke-width="25" stroke-linecap="round"/>
<path d="M1041.45 216.972H992.919C987.397 216.972 982.919 221.449 982.919 226.972V251.379C982.919 256.902 987.397 261.379 992.919 261.379H1041.45" stroke="#455B88" stroke-width="25" stroke-linecap="round"/>
<path d="M946.548 214.752V293.121C946.548 298.644 951.025 303.121 956.548 303.121H1036.46C1041.99 303.121 1046.46 307.598 1046.46 313.121V377.938C1046.46 383.461 1041.99 387.938 1036.46 387.938H1024.31" stroke="#E7E3E0" stroke-width="25" stroke-linecap="round"/>
<path d="M989.19 387.494H946.13" stroke="black" stroke-width="25" stroke-linecap="round"/>
<path d="M1012.18 345.752H919.341C913.818 345.752 909.341 341.275 909.341 335.752V226.084C909.341 220.561 904.864 216.084 899.341 216.084H882.969C877.447 216.084 872.969 220.561 872.969 226.084V377.938C872.969 383.461 877.447 387.938 882.969 387.938H909.341" stroke="#FF7930" stroke-width="25" stroke-linecap="round"/>
<path d="M1473.64 174.241V125.816C1473.64 120.293 1469.16 115.816 1463.64 115.816H1439.15C1433.63 115.816 1429.15 120.293 1429.15 125.816V174.241" stroke="#455B88" stroke-width="25" stroke-linecap="round"/>
<path d="M1475.86 79.5094L1397.34 79.5094C1391.81 79.5094 1387.34 83.9866 1387.34 89.5094V169.248C1387.34 174.771 1382.86 179.248 1377.34 179.248L1312.37 179.248C1306.85 179.248 1302.37 174.771 1302.37 169.248V157.131" stroke="#E7E3E0" stroke-width="25" stroke-linecap="round"/>
<path d="M1302.81 122.076V79.0921" stroke="black" stroke-width="25" stroke-linecap="round"/>
<path d="M1344.63 145.028V52.3682C1344.63 46.8453 1349.11 42.3682 1354.63 42.3682L1464.53 42.3682C1470.05 42.3682 1474.53 37.891 1474.53 32.3682V16.0615C1474.53 10.5387 1470.05 6.06153 1464.53 6.06153L1312.37 6.06153C1306.85 6.06153 1302.37 10.5387 1302.37 16.0615V42.3682" stroke="#FF7930" stroke-width="25" stroke-linecap="round"/>
<path d="M1259.37 382.931V334.506C1259.37 328.983 1254.9 324.506 1249.37 324.506H1224.89C1219.37 324.506 1214.89 328.983 1214.89 334.506V382.931" stroke="#455B88" stroke-width="25" stroke-linecap="round"/>
<path d="M1261.6 288.2H1183.07C1177.55 288.2 1173.07 292.677 1173.07 298.2V377.938C1173.07 383.461 1168.59 387.938 1163.07 387.938H1098.1C1092.58 387.938 1088.1 383.461 1088.1 377.938V365.821" stroke="#E7E3E0" stroke-width="25" stroke-linecap="round"/>
<path d="M1088.55 330.766V287.782" stroke="black" stroke-width="25" stroke-linecap="round"/>
<path d="M1130.36 353.718V261.058C1130.36 255.535 1134.84 251.058 1140.36 251.058H1250.26C1255.79 251.058 1260.26 246.581 1260.26 241.058V224.752C1260.26 219.229 1255.79 214.752 1250.26 214.752L1098.1 214.752C1092.58 214.752 1088.1 219.229 1088.1 224.752V251.058" stroke="#FF7930" stroke-width="25" stroke-linecap="round"/>
<path d="M1255.71 7.41595L1207.19 7.41595C1201.66 7.41595 1197.19 11.8931 1197.19 17.4159V41.8228C1197.19 47.3457 1201.66 51.8228 1207.19 51.8228L1255.71 51.8228" stroke="#455B88" stroke-width="25" stroke-linecap="round"/>
<path d="M1160.81 5.1956V83.5653C1160.81 89.0881 1165.29 93.5653 1170.81 93.5653L1250.73 93.5653C1256.25 93.5653 1260.73 98.0424 1260.73 103.565V168.382C1260.73 173.905 1256.25 178.382 1250.73 178.382H1238.57" stroke="#E7E3E0" stroke-width="25" stroke-linecap="round"/>
<path d="M1203.46 177.938H1160.4" stroke="black" stroke-width="25" stroke-linecap="round"/>
<path d="M1226.45 136.196L1133.61 136.196C1128.08 136.196 1123.61 131.719 1123.61 126.196V16.5278C1123.61 11.005 1119.13 6.52782 1113.61 6.52782L1097.24 6.52782C1091.71 6.52782 1087.24 11.005 1087.24 16.5278V168.382C1087.24 173.905 1091.71 178.382 1097.24 178.382H1123.61" stroke="#FF7930" stroke-width="25" stroke-linecap="round"/>
<path d="M1471.72 216.972H1423.19C1417.66 216.972 1413.19 221.449 1413.19 226.972V251.379C1413.19 256.902 1417.66 261.379 1423.19 261.379H1471.72" stroke="#455B88" stroke-width="25" stroke-linecap="round"/>
<path d="M1376.82 214.752V293.121C1376.82 298.644 1381.29 303.121 1386.82 303.121H1466.73C1472.26 303.121 1476.73 307.598 1476.73 313.121V377.938C1476.73 383.461 1472.26 387.938 1466.73 387.938H1454.57" stroke="#E7E3E0" stroke-width="25" stroke-linecap="round"/>
<path d="M1419.46 387.494H1376.4" stroke="black" stroke-width="25" stroke-linecap="round"/>
<path d="M1442.45 345.752H1349.61C1344.09 345.752 1339.61 341.275 1339.61 335.752V226.084C1339.61 220.561 1335.13 216.084 1329.61 216.084H1313.24C1307.71 216.084 1303.24 220.561 1303.24 226.084V377.938C1303.24 383.461 1307.71 387.938 1313.24 387.938H1339.61" stroke="#FF7930" stroke-width="25" stroke-linecap="round"/>
<path d="M1903.91 169.045V120.62C1903.91 115.098 1899.43 110.62 1893.91 110.62H1869.42C1863.9 110.62 1859.42 115.098 1859.42 120.62V169.045" stroke="#455B88" stroke-width="25" stroke-linecap="round"/>
<path d="M1906.13 74.3138L1827.61 74.3138C1822.08 74.3138 1817.61 78.791 1817.61 84.3138V164.053C1817.61 169.576 1813.13 174.053 1807.61 174.053L1742.64 174.053C1737.11 174.053 1732.64 169.576 1732.64 164.053V151.935" stroke="#E7E3E0" stroke-width="25" stroke-linecap="round"/>
<path d="M1733.08 116.88V73.8965" stroke="black" stroke-width="25" stroke-linecap="round"/>
<path d="M1774.9 139.833V47.1726C1774.9 41.6497 1779.38 37.1726 1784.9 37.1726L1894.8 37.1726C1900.32 37.1726 1904.8 32.6954 1904.8 27.1726V10.8659C1904.8 5.34308 1900.32 0.865932 1894.8 0.865932L1742.64 0.865932C1737.11 0.865932 1732.64 5.34308 1732.64 10.8659V37.1726" stroke="#FF7930" stroke-width="25" stroke-linecap="round"/>
<path d="M1689.64 377.735V329.311C1689.64 323.788 1685.16 319.311 1679.64 319.311H1655.16C1649.63 319.311 1645.16 323.788 1645.16 329.311V377.735" stroke="#455B88" stroke-width="25" stroke-linecap="round"/>
<path d="M1691.87 283.004H1613.34C1607.82 283.004 1603.34 287.481 1603.34 293.004V372.743C1603.34 378.266 1598.86 382.743 1593.34 382.743H1528.37C1522.85 382.743 1518.37 378.266 1518.37 372.743V360.625" stroke="#E7E3E0" stroke-width="25" stroke-linecap="round"/>
<path d="M1518.82 325.57V282.587" stroke="black" stroke-width="25" stroke-linecap="round"/>
<path d="M1560.63 348.523V255.863C1560.63 250.34 1565.11 245.863 1570.63 245.863H1680.53C1686.05 245.863 1690.53 241.386 1690.53 235.863V219.556C1690.53 214.033 1686.05 209.556 1680.53 209.556L1528.37 209.556C1522.85 209.556 1518.37 214.033 1518.37 219.556V245.863" stroke="#FF7930" stroke-width="25" stroke-linecap="round"/>
<path d="M1685.98 2.22034L1637.45 2.22034C1631.93 2.22034 1627.45 6.6975 1627.45 12.2203V36.6272C1627.45 42.1501 1631.93 46.6272 1637.45 46.6272L1685.98 46.6272" stroke="#455B88" stroke-width="25" stroke-linecap="round"/>
<path d="M1591.08 0V78.3697C1591.08 83.8925 1595.56 88.3697 1601.08 88.3697L1681 88.3697C1686.52 88.3697 1691 92.8468 1691 98.3697V163.187C1691 168.71 1686.52 173.187 1681 173.187H1668.84" stroke="#E7E3E0" stroke-width="25" stroke-linecap="round"/>
<path d="M1633.72 172.743H1590.66" stroke="black" stroke-width="25" stroke-linecap="round"/>
<path d="M1656.72 131L1563.87 131C1558.35 131 1553.87 126.523 1553.87 121V11.3322C1553.87 5.80937 1549.4 1.33221 1543.87 1.33221L1527.5 1.33221C1521.98 1.33221 1517.5 5.80936 1517.5 11.3322V163.187C1517.5 168.71 1521.98 173.187 1527.5 173.187H1553.87" stroke="#FF7930" stroke-width="25" stroke-linecap="round"/>
<path d="M1901.98 211.776H1853.45C1847.93 211.776 1843.45 216.254 1843.45 221.776V246.183C1843.45 251.706 1847.93 256.183 1853.45 256.183H1901.98" stroke="#455B88" stroke-width="25" stroke-linecap="round"/>
<path d="M1807.08 209.556V287.926C1807.08 293.449 1811.56 297.926 1817.08 297.926H1897C1902.52 297.926 1907 302.403 1907 307.926V372.743C1907 378.266 1902.52 382.743 1897 382.743H1884.84" stroke="#E7E3E0" stroke-width="25" stroke-linecap="round"/>
<path d="M1849.73 382.299H1806.67" stroke="black" stroke-width="25" stroke-linecap="round"/>
<path d="M1872.72 340.556H1779.88C1774.35 340.556 1769.88 336.079 1769.88 330.556V220.888C1769.88 215.365 1765.4 210.888 1759.88 210.888H1743.5C1737.98 210.888 1733.5 215.365 1733.5 220.888V372.743C1733.5 378.266 1737.98 382.743 1743.5 382.743H1769.88" stroke="#FF7930" stroke-width="25" stroke-linecap="round"/>
</g>
<defs>
<clipPath id="clip0_1_3">
<rect width="1920" height="407" fill="white"/>
</clipPath>
</defs>
</svg>
